<svg width="200" height="200" viewBox="0 0 200 200" fill="none" xmlns="http://www.w3.org/2000/svg">
<path d="M76.5557 140.738H86.8306L152.821 75.8146L142.546 65.706L81.7655 125.646L53.9799 98.3099L43.7051 108.419L76.5557 140.738Z" fill="#4CD964" fill-opacity="0.8"/>
<path fill-rule="evenodd" clip-rule="evenodd" d="M110.276 0.213562C133.43 1.63731 155.138 13.0273 171.057 28.6886C189.87 48.621 200 72.8248 200 101.3C200 124.08 191.317 145.436 176.845 163.945C162.374 181.03 142.113 193.844 118.959 198.115C95.8042 202.386 72.6496 199.538 52.3893 188.148C32.129 176.759 16.2102 159.674 7.52726 138.317C-1.15572 116.961 -2.60288 92.7573 4.63294 71.401C11.8688 48.621 24.8932 30.1123 45.1535 17.2986C63.9666 4.48481 87.1213 -1.21019 110.276 0.213562ZM117.512 183.877C136.325 179.606 153.691 169.64 166.715 153.979C178.293 138.317 185.528 119.809 184.081 99.876C184.081 77.096 175.398 54.316 159.479 38.6548C145.008 24.4173 127.642 15.8748 107.382 14.4511C88.5684 13.0273 68.3081 17.2986 52.3893 28.6886C36.4705 40.0786 24.8932 55.7398 19.1046 75.6723C13.3159 94.181 13.3159 114.114 21.9989 132.622C30.6819 151.131 43.7063 165.369 61.0723 175.335C78.4383 185.301 98.6986 188.148 117.512 183.877Z" fill="#4CD964" fill-opacity="0.8"/>
</svg>
