<svg width="11" height="13" viewBox="0 0 11 13" fill="none" xmlns="http://www.w3.org/2000/svg">
<path d="M5.57644 8.35019V9.60643C5.1019 9.41409 4.59402 9.3551 4.09547 9.4344C3.59692 9.5137 3.12224 9.72898 2.7113 10.0622C2.30036 10.3954 1.96516 10.8367 1.73384 11.3492C1.50252 11.8617 1.38184 12.4303 1.38194 13.0073L0.333313 13.0067C0.33315 12.2727 0.479555 11.5484 0.761309 10.8894C1.04306 10.2303 1.45269 9.65388 1.9588 9.20434C2.46491 8.75479 3.05407 8.44404 3.68113 8.29588C4.3082 8.14772 4.95653 8.16669 5.57644 8.35019ZM4.52782 7.59765C2.78972 7.59765 1.38194 5.98376 1.38194 3.99121C1.38194 1.99865 2.78972 0.384766 4.52782 0.384766C6.26591 0.384766 7.67369 1.99865 7.67369 3.99121C7.67369 5.98376 6.26591 7.59765 4.52782 7.59765ZM4.52782 6.3955C5.68655 6.3955 6.62507 5.31958 6.62507 3.99121C6.62507 2.66283 5.68655 1.58691 4.52782 1.58691C3.36909 1.58691 2.43057 2.66283 2.43057 3.99121C2.43057 5.31958 3.36909 6.3955 4.52782 6.3955ZM10.1969 10.5L10.2206 10.6205L10.2953 11L10.1969 10.5L10.2485 10.8384L10.1969 11V10.5Z" fill="#FAAD39"/>
</svg>
