<svg width="18" height="19" viewBox="0 0 18 19" fill="none" xmlns="http://www.w3.org/2000/svg">
<path d="M9.22 0C10.2809 0 11.2983 0.421427 12.0484 1.17157C12.7986 1.92172 13.22 2.93913 13.22 4C13.22 5.95 11.82 7.58 9.97 7.93L5.29 3.25C5.46526 2.33596 5.95346 1.51153 6.67067 0.91841C7.38788 0.325294 8.28931 0.000549914 9.22 0ZM9.5 10L15.5 16L17.22 17.72L15.95 19L12.95 16H1.22V14C1.22 12.16 3.72 10.61 7.09 10.14L0 3.05L1.27 1.78L9.5 10ZM17.22 14V15.18L12.36 10.32C15.22 10.93 17.22 12.35 17.22 14Z" fill="white" fill-opacity="0.8"/>
</svg>
