<svg width="18" height="18" viewBox="0 0 18 18" fill="none" xmlns="http://www.w3.org/2000/svg">
<g clip-path="url(#clip0_1_9803)">
<path d="M17.3996 17.4001L12.5996 12.6001M7.79961 15.0001C6.85409 15.0001 5.91783 14.8139 5.04429 14.452C4.17074 14.0902 3.37702 13.5598 2.70844 12.8913C2.03986 12.2227 1.50951 11.429 1.14768 10.5554C0.785843 9.68187 0.599609 8.74561 0.599609 7.8001C0.599609 6.85458 0.785843 5.91832 1.14768 5.04478C1.50951 4.17123 2.03986 3.37751 2.70844 2.70893C3.37702 2.04035 4.17074 1.51 5.04429 1.14816C5.91783 0.786331 6.85409 0.600098 7.79961 0.600098C9.70917 0.600098 11.5405 1.35867 12.8908 2.70893C14.241 4.05919 14.9996 5.89054 14.9996 7.8001C14.9996 9.70966 14.241 11.541 12.8908 12.8913C11.5405 14.2415 9.70917 15.0001 7.79961 15.0001Z" stroke="#949494" stroke-width="1.2"/>
</g>
<defs>
<clipPath id="clip0_1_9803">
<rect width="18" height="18" fill="white"/>
</clipPath>
</defs>
</svg>
