<svg width="18" height="18" viewBox="0 0 18 18" fill="none" xmlns="http://www.w3.org/2000/svg">
<path d="M17.8266 6.62674C17.1831 4.86667 15.0808 4.28486 13.6312 5.24822L11.6892 3.63582C12.2141 1.93141 10.9879 0.0565479 9.08149 0.00124251C7.11815 -0.0557154 5.76309 1.85578 6.31026 3.63354L4.36693 5.24703C2.87307 4.25424 0.717259 4.91323 0.135282 6.73792C-0.402327 8.42355 0.73111 10.0757 2.32031 10.3616L3.0722 13.0597C1.72958 14.2157 1.76217 16.4394 3.33475 17.5078C4.89266 18.5662 6.95137 17.8043 7.55687 16.1645H10.4384C11.0658 17.8829 13.2518 18.6021 14.7911 17.4137C16.2736 16.2691 16.1998 14.0935 14.8522 13.0013L15.6284 10.3705C17.2946 10.1049 18.4553 8.34631 17.8266 6.62671V6.62674ZM10.3217 14.6178H7.67552C7.37993 13.1648 5.95571 12.1797 4.49483 12.4037L3.87995 10.1971C5.37314 9.59629 6.03042 7.8391 5.37486 6.42053L7.15651 4.94132C8.19583 5.84547 9.79235 5.85665 10.8415 4.94251L12.6247 6.4231C11.9709 7.83773 12.6273 9.56479 14.0725 10.178L13.4195 12.3914C11.9735 12.2109 10.612 13.2069 10.3217 14.6178Z" fill="white" fill-opacity="0.8"/>
</svg>
